<svg width="70" height="70" viewBox="0 0 70 70" fill="none" xmlns="http://www.w3.org/2000/svg">
<path d="M44.1263 50.6797H38.3372V31.75C38.3372 31.4063 38.056 31.125 37.7122 31.125H33.0247C32.681 31.125 32.3997 31.4063 32.3997 31.75V50.6797H26.6263C26.1028 50.6797 25.8138 51.2813 26.1341 51.6875L34.8841 62.7578C34.9425 62.8325 35.0172 62.8929 35.1025 62.9345C35.1878 62.976 35.2814 62.9976 35.3763 62.9976C35.4711 62.9976 35.5647 62.976 35.65 62.9345C35.7353 62.8929 35.81 62.8325 35.8685 62.7578L44.6185 51.6875C44.9388 51.2813 44.6497 50.6797 44.1263 50.6797V50.6797Z" fill="#ED4C5C"/>
<path d="M58.3906 24.1484C54.8125 14.7109 45.6953 8 35.0156 8C24.3359 8 15.2187 14.7031 11.6406 24.1406C4.94531 25.8984 0 32 0 39.25C0 47.8828 6.99219 54.875 15.6172 54.875H18.75C19.0938 54.875 19.375 54.5938 19.375 54.25V49.5625C19.375 49.2187 19.0938 48.9375 18.75 48.9375H15.6172C12.9844 48.9375 10.5078 47.8906 8.66406 45.9922C6.82812 44.1016 5.85156 41.5547 5.9375 38.9141C6.00781 36.8516 6.71094 34.9141 7.98437 33.2813C9.28906 31.6172 11.1172 30.4062 13.1484 29.8672L16.1094 29.0938L17.1953 26.2344C17.8672 24.4531 18.8047 22.7891 19.9844 21.2812C21.149 19.7868 22.5286 18.473 24.0781 17.3828C27.2891 15.125 31.0703 13.9297 35.0156 13.9297C38.9609 13.9297 42.7422 15.125 45.9531 17.3828C47.5078 18.4766 48.8828 19.7891 50.0469 21.2812C51.2266 22.7891 52.1641 24.4609 52.8359 26.2344L53.9141 29.0859L56.8672 29.8672C61.1016 31.0078 64.0625 34.8594 64.0625 39.25C64.0625 41.8359 63.0547 44.2734 61.2266 46.1016C60.33 47.0033 59.2635 47.7183 58.0888 48.2051C56.914 48.6919 55.6544 48.9408 54.3828 48.9375H51.25C50.9062 48.9375 50.625 49.2187 50.625 49.5625V54.25C50.625 54.5938 50.9062 54.875 51.25 54.875H54.3828C63.0078 54.875 70 47.8828 70 39.25C70 32.0078 65.0703 25.9141 58.3906 24.1484Z" fill="#ED4C5C"/>
</svg>
