<svg width="70" height="70" viewBox="0 0 70 70" fill="none" xmlns="http://www.w3.org/2000/svg">
<path fill-rule="evenodd" clip-rule="evenodd" d="M35.9732 5.48691L57.8744 12.9506C58.4094 13.1375 58.8477 13.7498 58.8348 14.317V45.4092C58.8348 45.9828 58.4674 46.7305 58.0227 47.0785L35.8057 64.3906C35.5865 64.5646 35.29 64.6549 34.9936 64.6549C34.6971 64.6549 34.407 64.5646 34.1814 64.3906L11.9645 47.0785C11.5197 46.724 11.1523 45.9764 11.1523 45.4092V14.317C11.1523 13.7498 11.5906 13.1311 12.1256 12.9506L34.0268 5.48691C34.291 5.39668 34.6455 5.35156 35 5.35156C35.3545 5.35156 35.709 5.39668 35.9732 5.48691ZM35 59.1377L54.207 44.1717V16.6115L35 10.0631L15.793 16.6115V44.1717L35 59.1377Z" fill="#ED4C5C"/>
<path fill-rule="evenodd" clip-rule="evenodd" d="M27.9682 36.0828L22.973 41.0779C22.8771 41.1748 22.8233 41.3057 22.8233 41.4421C22.8233 41.5785 22.8771 41.7093 22.973 41.8062L25.1645 43.9977C25.3643 44.1975 25.693 44.1975 25.8928 43.9977L30.8879 39.0025C34.4779 41.2648 39.2732 40.833 42.3992 37.707C46.0279 34.0783 46.0279 28.2002 42.3992 24.5715C38.7705 20.9428 32.8924 20.9428 29.2637 24.5715C26.1377 27.6975 25.7059 32.4992 27.9682 36.0828ZM39.4795 27.4912C37.4686 25.4738 34.2008 25.4738 32.1834 27.4912C30.166 29.5086 30.1725 32.7699 32.1834 34.7873C34.1943 36.8047 37.4621 36.8047 39.4795 34.7873C41.4969 32.7764 41.4969 29.5086 39.4795 27.4912Z" fill="#ED4C5C"/>
</svg>
